# xmcd CD database file
#
# Track frame offsets:
#	150
#	19006
#	35929
#	47521
#	62120
#
# Disc length: 1069 seconds
#
# Revision: 0
# Processed by: cddbd v1.5.1PL0 Copyright (c) Steve Scherf et al.
# Submitted via: CDex 1.51
#
DISCID=3e042b05
DTITLE=Varios - Ritmos de Oro - Merengue (La Opinion)
DYEAR=2000
DGENRE=Merengue
TTITLE0=Disco Latino - La faldita
TTITLE1=Disco Latino - El chuchumbe
TTITLE2=Kaliente - El chivo macho
TTITLE3=Disco Latino - Adivinalo
TTITLE4=Te Caliente - Awisa
EXTD=YEAR: 2000
EXTT0=
EXTT1=
EXTT2=
EXTT3=
EXTT4=
PLAYORDER=
